<svg xmlns="http://www.w3.org/2000/svg" xmlns:xlink="http://www.w3.org/1999/xlink" zoomAndPan="magnify" preserveAspectRatio="xMidYMid meet" version="1.0" viewBox="460.23 161.82 516.93 491.45"><defs><g/><clipPath id="d05e580447"><path d="M 532.058594 230.035156 L 907.808594 230.035156 L 907.808594 605.785156 L 532.058594 605.785156 Z M 532.058594 230.035156 " clip-rule="nonzero"/></clipPath></defs><g fill="#ffffff" fill-opacity="1"><g transform="translate(522.465572, 503.926948)"><g><path d="M -16.125 -92.796875 L -12.765625 -73.46875 L -42.171875 -68.359375 L -9.765625 -56.171875 L -7.25 -41.75 L -33.65625 -19.390625 L -4.25 -24.5 L -0.890625 -5.140625 L -47 2.875 L -51 -20.09375 L -21.671875 -46.671875 L -58.234375 -61.78125 L -62.234375 -84.78125 Z M -16.125 -92.796875 "/></g></g></g><g fill="#ffffff" fill-opacity="1"><g transform="translate(507.984225, 412.755261)"><g><path d="M 7.9375 -34.5 C 5.664062 -23.15625 1.664062 -15.273438 -4.0625 -10.859375 C -9.15625 -6.953125 -15.273438 -5.710938 -22.421875 -7.140625 C -29.535156 -8.566406 -34.691406 -12.0625 -37.890625 -17.625 C -41.492188 -23.90625 -42.160156 -32.71875 -39.890625 -44.0625 C -37.617188 -55.394531 -33.617188 -63.273438 -27.890625 -67.703125 C -22.796875 -71.609375 -16.691406 -72.847656 -9.578125 -71.421875 C -2.429688 -69.992188 2.738281 -66.5 5.9375 -60.9375 C 9.539062 -54.644531 10.207031 -45.832031 7.9375 -34.5 Z M -4.390625 -36.96875 C -3.460938 -41.613281 -4.113281 -45.289062 -6.34375 -48 C -8.132812 -50.175781 -10.492188 -51.554688 -13.421875 -52.140625 C -16.335938 -52.734375 -19.035156 -52.363281 -21.515625 -51.03125 C -24.640625 -49.394531 -26.664062 -46.253906 -27.59375 -41.609375 C -28.519531 -36.960938 -27.859375 -33.269531 -25.609375 -30.53125 C -23.835938 -28.363281 -21.492188 -26.984375 -18.578125 -26.390625 C -15.648438 -25.804688 -12.9375 -26.175781 -10.4375 -27.5 C -7.332031 -29.164062 -5.316406 -32.320312 -4.390625 -36.96875 Z M -4.390625 -36.96875 "/></g></g></g><g fill="#ffffff" fill-opacity="1"><g transform="translate(519.841912, 348.864771)"><g><path d="M 18 -30.5 C 12.40625 -20.363281 6.207031 -14.050781 -0.59375 -11.5625 C -6.625 -9.382812 -12.828125 -10.0625 -19.203125 -13.59375 C -25.566406 -17.101562 -29.425781 -21.984375 -30.78125 -28.234375 C -32.3125 -35.316406 -30.28125 -43.925781 -24.6875 -54.0625 C -19.101562 -64.175781 -12.90625 -70.472656 -6.09375 -72.953125 C -0.0703125 -75.148438 6.117188 -74.492188 12.484375 -70.984375 C 18.859375 -67.453125 22.726562 -62.550781 24.09375 -56.28125 C 25.613281 -49.207031 23.582031 -40.613281 18 -30.5 Z M 7 -36.5625 C 9.289062 -40.707031 9.785156 -44.410156 8.484375 -47.671875 C 7.410156 -50.285156 5.570312 -52.316406 2.96875 -53.765625 C 0.351562 -55.203125 -2.328125 -55.664062 -5.078125 -55.15625 C -8.546875 -54.539062 -11.425781 -52.160156 -13.71875 -48.015625 C -16.007812 -43.859375 -16.5 -40.132812 -15.1875 -36.84375 C -14.15625 -34.25 -12.332031 -32.234375 -9.71875 -30.796875 C -7.113281 -29.347656 -4.414062 -28.867188 -1.625 -29.359375 C 1.832031 -30.003906 4.707031 -32.40625 7 -36.5625 Z M 7 -36.5625 "/></g></g></g><g fill="#ffffff" fill-opacity="1"><g transform="translate(550.388215, 291.529155)"><g><path d="M 32.65625 -30.859375 L 19.421875 -18.359375 L -31.765625 -34.3125 L -17.3125 -47.984375 L 16.875 -34.328125 L 5.140625 -69.203125 L 19.59375 -82.875 Z M 32.65625 -30.859375 "/></g></g></g><g fill="#ffffff" fill-opacity="1"><g transform="translate(600.319856, 246.806756)"><g><path d="M 21.375 -12.703125 L 4.484375 -2.671875 L -19.4375 -42.890625 L -2.546875 -52.921875 Z M 21.375 -12.703125 "/></g></g></g><g fill="#ffffff" fill-opacity="1"><g transform="translate(621.69466, 231.589672)"><g><path d="M 58.21875 -20.0625 L 4.9375 -1.703125 L -10.3125 -45.953125 L 40.53125 -63.46875 L 44.3125 -52.515625 L 12.03125 -41.390625 L 14.421875 -34.46875 L 41.703125 -43.875 L 44.625 -35.359375 L 17.34375 -25.953125 L 19.734375 -19.046875 L 54.453125 -31.015625 Z M 58.21875 -20.0625 "/></g></g></g><g fill="#ffffff" fill-opacity="1"><g transform="translate(679.416374, 213.56448)"><g/></g></g><g fill="#ffffff" fill-opacity="1"><g transform="translate(691.613616, 208.322506)"><g><path d="M 38.75 1.625 L 5.21875 0.21875 L 7.1875 -46.5 L 41.4375 -45.0625 C 47.507812 -44.800781 52.5 -44.3125 56.40625 -43.59375 C 60.320312 -42.882812 63.316406 -41.894531 65.390625 -40.625 C 67.472656 -39.351562 68.851562 -37.785156 69.53125 -35.921875 C 70.21875 -34.066406 70.507812 -31.863281 70.40625 -29.3125 C 70.257812 -27.320312 69.640625 -25.691406 68.546875 -24.421875 C 67.460938 -23.160156 66.21875 -22.238281 64.8125 -21.65625 C 63.414062 -21.070312 62.191406 -20.800781 61.140625 -20.84375 C 62.160156 -20.800781 63.34375 -20.546875 64.6875 -20.078125 C 66.039062 -19.617188 67.347656 -18.984375 68.609375 -18.171875 C 69.867188 -17.359375 70.90625 -16.390625 71.71875 -15.265625 C 72.539062 -14.148438 72.921875 -12.894531 72.859375 -11.5 C 72.785156 -9.675781 72.5 -8.007812 72 -6.5 C 71.507812 -5 70.601562 -3.691406 69.28125 -2.578125 C 67.96875 -1.460938 66.054688 -0.550781 63.546875 0.15625 C 61.035156 0.875 57.765625 1.359375 53.734375 1.609375 C 49.710938 1.867188 44.71875 1.875 38.75 1.625 Z M 38.796875 -25.78125 C 41.660156 -25.65625 43.882812 -25.703125 45.46875 -25.921875 C 47.050781 -26.148438 48.15625 -26.535156 48.78125 -27.078125 C 49.414062 -27.628906 49.753906 -28.351562 49.796875 -29.25 C 49.835938 -30.164062 49.5625 -30.921875 48.96875 -31.515625 C 48.382812 -32.117188 47.3125 -32.585938 45.75 -32.921875 C 44.195312 -33.253906 41.988281 -33.484375 39.125 -33.609375 L 26.328125 -34.140625 L 26 -26.3125 Z M 38.125 -9.953125 C 41.0625 -9.828125 43.441406 -9.800781 45.265625 -9.875 C 47.085938 -9.945312 48.4375 -10.238281 49.3125 -10.75 C 50.1875 -11.269531 50.644531 -12.132812 50.6875 -13.34375 C 50.738281 -14.5625 50.351562 -15.460938 49.53125 -16.046875 C 48.707031 -16.640625 47.390625 -17.046875 45.578125 -17.265625 C 43.765625 -17.484375 41.390625 -17.65625 38.453125 -17.78125 L 25.65625 -18.3125 L 25.328125 -10.484375 Z M 38.125 -9.953125 "/></g></g></g><g fill="#ffffff" fill-opacity="1"><g transform="translate(760.500878, 210.513589)"><g><path d="M 42.734375 16.078125 L 24.359375 9.171875 L 32.171875 -11.578125 L 16.9375 -43.625 L 37.3125 -35.953125 L 45.109375 -18.078125 L 62.71875 -26.390625 L 83.09375 -18.71875 L 50.546875 -4.671875 Z M 42.734375 16.078125 "/></g></g></g><g fill="#ffffff" fill-opacity="1"><g transform="translate(822.918927, 236.413012)"><g/></g></g><g fill="#ffffff" fill-opacity="1"><g transform="translate(836.424654, 237.930562)"><g><path d="M 65.40625 67.78125 L 51.78125 53.65625 L 73.25 32.9375 L 39.59375 41.03125 L 29.421875 30.5 L 38.734375 -2.828125 L 17.265625 17.890625 L 3.625 3.75 L 37.296875 -28.75 L 53.484375 -11.96875 L 44.140625 26.484375 L 82.859375 18.484375 L 99.078125 35.28125 Z M 65.40625 67.78125 "/></g></g></g><g fill="#ffffff" fill-opacity="1"><g transform="translate(899.543125, 305.286928)"><g><path d="M 12.78125 33.015625 C 8.289062 22.347656 7.179688 13.578125 9.453125 6.703125 C 11.484375 0.617188 15.859375 -3.832031 22.578125 -6.65625 C 29.265625 -9.476562 35.488281 -9.484375 41.25 -6.671875 C 47.75 -3.484375 53.242188 3.441406 57.734375 14.109375 C 62.222656 24.765625 63.332031 33.53125 61.0625 40.40625 C 59.039062 46.5 54.6875 50.957031 48 53.78125 C 41.28125 56.601562 35.035156 56.601562 29.265625 53.78125 C 22.765625 50.59375 17.269531 43.671875 12.78125 33.015625 Z M 24.359375 28.140625 C 26.203125 32.503906 28.804688 35.1875 32.171875 36.1875 C 34.890625 36.96875 37.625 36.785156 40.375 35.640625 C 43.113281 34.484375 45.132812 32.664062 46.4375 30.1875 C 48.113281 27.070312 48.03125 23.332031 46.1875 18.96875 C 44.351562 14.59375 41.734375 11.90625 38.328125 10.90625 C 35.640625 10.113281 32.925781 10.296875 30.1875 11.453125 C 27.4375 12.597656 25.394531 14.414062 24.0625 16.90625 C 22.425781 20.019531 22.523438 23.765625 24.359375 28.140625 Z M 24.359375 28.140625 "/></g></g></g><g fill="#ffffff" fill-opacity="1"><g transform="translate(925.567002, 364.829789)"><g><path d="M 2.203125 35.34375 C 1.148438 23.8125 2.742188 15.109375 6.984375 9.234375 C 10.753906 4.054688 16.269531 1.132812 23.53125 0.46875 C 30.757812 -0.1875 36.691406 1.691406 41.328125 6.109375 C 46.566406 11.109375 49.710938 19.375 50.765625 30.90625 C 51.816406 42.414062 50.21875 51.109375 45.96875 56.984375 C 42.21875 62.179688 36.726562 65.109375 29.5 65.765625 C 22.238281 66.429688 16.28125 64.546875 11.625 60.109375 C 6.394531 55.109375 3.253906 46.851562 2.203125 35.34375 Z M 14.71875 34.203125 C 15.144531 38.921875 16.816406 42.257812 19.734375 44.21875 C 22.078125 45.789062 24.734375 46.441406 27.703125 46.171875 C 30.671875 45.898438 33.15625 44.78125 35.15625 42.8125 C 37.675781 40.351562 38.722656 36.765625 38.296875 32.046875 C 37.859375 27.316406 36.175781 23.960938 33.25 21.984375 C 30.925781 20.410156 28.28125 19.757812 25.3125 20.03125 C 22.34375 20.300781 19.847656 21.421875 17.828125 23.390625 C 15.316406 25.867188 14.28125 29.472656 14.71875 34.203125 Z M 14.71875 34.203125 "/></g></g></g><g fill="#ffffff" fill-opacity="1"><g transform="translate(932.724131, 429.345624)"><g><path d="M -8.15625 35.609375 L -1.171875 5.09375 L 44.4375 15.546875 L 37.453125 46.0625 C 34.597656 58.539062 30.796875 67.113281 26.046875 71.78125 C 22.210938 75.539062 17.800781 77.175781 12.8125 76.6875 C 10.65625 76.476562 8.601562 76.148438 6.65625 75.703125 C 4.726562 75.265625 2.734375 74.671875 0.671875 73.921875 C -1.378906 73.171875 -3.257812 71.992188 -4.96875 70.390625 C -6.6875 68.796875 -8.054688 66.570312 -9.078125 63.71875 C -10.097656 60.875 -10.585938 57.171875 -10.546875 52.609375 C -10.503906 48.054688 -9.707031 42.390625 -8.15625 35.609375 Z M 3.546875 36.375 C 1.316406 46.101562 2.515625 52.171875 7.140625 54.578125 C 8.441406 55.234375 9.78125 55.71875 11.15625 56.03125 C 12.550781 56.351562 13.972656 56.492188 15.421875 56.453125 C 16.878906 56.410156 18.289062 55.945312 19.65625 55.0625 C 21.03125 54.1875 22.304688 52.691406 23.484375 50.578125 C 24.671875 48.460938 25.707031 45.488281 26.59375 41.65625 L 28.78125 32.09375 L 5.734375 26.8125 Z M 3.546875 36.375 "/></g></g></g><g clip-path="url(#d05e580447)"><path fill="#3909ac" d="M 532.058594 417.96875 C 532.058594 314.175781 616.195312 230.039062 719.988281 230.039062 C 823.78125 230.039062 907.921875 314.175781 907.921875 417.96875 C 907.921875 521.761719 823.78125 605.898438 719.988281 605.898438 C 616.195312 605.898438 532.058594 521.761719 532.058594 417.96875 " fill-opacity="1" fill-rule="nonzero"/><path fill="#4a29d7" d="M 670.1875 599.230469 L 674.703125 596.347656 L 669.207031 598.957031 C 665.859375 598.019531 662.550781 596.992188 659.28125 595.878906 L 671.457031 589.667969 L 656.734375 594.988281 C 653.496094 593.832031 650.296875 592.585938 647.144531 591.261719 L 668.867188 582.707031 L 642.796875 589.367188 C 639.753906 587.992188 636.75 586.539062 633.792969 585.011719 L 666.964844 575.527344 L 627.539062 581.625 C 624.773438 580.058594 622.046875 578.425781 619.371094 576.726562 L 665.765625 568.195312 L 611.292969 571.292969 C 608.882812 569.582031 606.519531 567.820312 604.195312 566 L 665.273438 560.785156 L 594.613281 557.96875 C 592.617188 556.179688 590.660156 554.351562 588.746094 552.480469 L 665.503906 553.363281 L 578.25 541.375 C 576.691406 539.589844 575.167969 537.769531 573.675781 535.921875 L 666.449219 545.992188 L 563.089844 521.445312 C 561.957031 519.734375 560.851562 518.003906 559.777344 516.25 L 668.101562 538.753906 L 550.0625 498.34375 C 549.320312 496.773438 548.597656 495.191406 547.898438 493.597656 L 670.441406 531.703125 L 540.085938 472.46875 C 539.667969 471.089844 539.265625 469.703125 538.878906 468.3125 L 673.457031 524.914062 L 533.90625 444.429688 C 533.742188 443.265625 533.589844 442.101562 533.449219 440.933594 L 677.109375 518.445312 L 532.082031 414.949219 C 532.097656 414.007812 532.121094 413.070312 532.148438 412.128906 L 681.367188 512.363281 L 534.96875 384.859375 C 535.097656 384.136719 535.226562 383.417969 535.363281 382.699219 L 686.195312 506.71875 L 542.816406 355.144531 L 543.382812 353.574219 L 691.546875 501.5625 L 555.625 326.785156 L 556.226562 325.710938 L 697.371094 496.953125 L 573.140625 300.683594 L 573.691406 299.996094 L 703.609375 492.921875 L 594.917969 277.699219 L 595.371094 277.296875 L 710.207031 489.515625 L 620.378906 258.582031 L 620.722656 258.363281 L 717.105469 486.761719 L 648.792969 243.996094 L 649.046875 243.890625 L 724.238281 484.6875 L 679.3125 234.453125 L 679.523438 234.40625 L 731.535156 483.308594 L 711 230.25 L 711.226562 230.238281 L 738.933594 482.640625 L 742.871094 231.417969 L 743.171875 231.453125 L 746.363281 482.6875 L 773.972656 237.910156 L 774.40625 238.039062 L 753.75 483.457031 L 803.371094 249.503906 L 803.972656 249.800781 L 761.027344 484.933594 L 830.199219 265.730469 L 830.984375 266.300781 L 768.132812 487.101562 L 853.730469 285.941406 L 854.675781 286.902344 L 774.992188 489.953125 L 873.398438 309.386719 C 873.746094 309.878906 874.09375 310.371094 874.433594 310.867188 L 781.546875 493.449219 L 888.777344 335.234375 C 889.125 335.941406 889.46875 336.648438 889.804688 337.359375 L 787.730469 497.558594 L 899.636719 362.609375 C 899.929688 363.566406 900.21875 364.53125 900.496094 365.492188 L 793.492188 502.25 L 905.945312 390.601562 C 906.125 391.835938 906.292969 393.078125 906.449219 394.324219 L 798.769531 507.472656 L 907.921875 418.273438 C 907.917969 419.804688 907.898438 421.335938 907.859375 422.863281 L 803.523438 513.179688 L 906.023438 444.777344 C 905.765625 446.597656 905.480469 448.40625 905.167969 450.203125 L 807.699219 519.320312 L 900.78125 469.460938 C 900.191406 471.53125 899.566406 473.59375 898.90625 475.636719 L 811.265625 525.835938 L 892.863281 491.804688 C 891.886719 494.085938 890.867188 496.34375 889.804688 498.578125 L 814.1875 532.667969 L 883.042969 511.484375 C 881.652344 513.902344 880.210938 516.285156 878.71875 518.632812 L 816.433594 539.746094 L 872.101562 528.359375 C 870.304688 530.828125 868.449219 533.253906 866.535156 535.632812 L 817.988281 547.011719 L 860.746094 542.496094 C 858.582031 544.941406 856.355469 547.328125 854.070312 549.65625 L 818.835938 554.386719 L 849.527344 554.128906 C 847.058594 556.476562 844.527344 558.757812 841.9375 560.96875 L 818.964844 561.816406 L 838.820312 563.570312 C 836.128906 565.769531 833.375 567.898438 830.558594 569.949219 L 818.375 569.21875 L 828.855469 571.179688 C 826.011719 573.203125 823.105469 575.148438 820.148438 577.015625 L 817.078125 576.53125 L 819.710938 577.292969 C 790.808594 595.417969 756.621094 605.898438 719.988281 605.898438 C 702.75 605.898438 686.050781 603.578125 670.1875 599.230469 " fill-opacity="1" fill-rule="nonzero"/></g><path fill="#211c1d" d="M 760.675781 540.714844 L 777.925781 596.800781 C 772.71875 598.488281 767.410156 599.949219 762.011719 601.183594 L 745.390625 544.617188 L 760.675781 540.714844 " fill-opacity="1" fill-rule="nonzero"/><path fill="#211c1d" d="M 789.285156 517.9375 C 791.132812 514.921875 793.789062 514.921875 797.25 517.9375 L 823.609375 574.777344 C 819.347656 577.601562 814.957031 580.257812 810.457031 582.734375 L 787.113281 531.6875 L 789.285156 517.9375 " fill-opacity="1" fill-rule="nonzero"/><path fill="#211c1d" d="M 787.28125 289.339844 C 803.257812 285.945312 820.792969 304.757812 826.449219 331.359375 C 832.105469 357.960938 823.738281 382.277344 807.761719 385.675781 C 805.722656 386.109375 799.226562 386.828125 797.972656 387.097656 C 782 390.492188 761.792969 372.285156 756.136719 345.683594 C 750.484375 319.082031 761.519531 294.15625 777.496094 290.761719 C 779.535156 290.328125 786.027344 289.605469 787.28125 289.339844 " fill-opacity="1" fill-rule="nonzero"/><path fill="#ffffff" d="M 787.875 292.140625 C 801.1875 289.308594 818.019531 305.464844 823.648438 331.953125 C 829.28125 358.445312 820.476562 380.042969 807.164062 382.875 C 793.855469 385.703125 777.023438 369.550781 771.390625 343.0625 C 765.761719 316.570312 774.566406 294.96875 787.875 292.140625 " fill-opacity="1" fill-rule="nonzero"/><path fill="#211c1d" d="M 724.78125 245.027344 C 742.59375 241.242188 762.140625 262.214844 768.445312 291.871094 C 774.75 321.53125 765.421875 348.640625 747.613281 352.425781 C 745.335938 352.910156 738.097656 353.714844 736.699219 354.011719 C 718.890625 357.796875 699.339844 336.824219 693.035156 307.167969 C 686.730469 277.511719 696.058594 250.402344 713.871094 246.613281 C 716.144531 246.132812 723.382812 245.328125 724.78125 245.027344 " fill-opacity="1" fill-rule="nonzero"/><path fill="#ffffff" d="M 725.445312 248.148438 C 740.28125 244.996094 759.046875 263.003906 765.324219 292.539062 C 771.605469 322.070312 761.785156 346.152344 746.945312 349.304688 C 732.109375 352.460938 713.34375 334.453125 707.066406 304.921875 C 700.789062 275.386719 710.605469 251.304688 725.445312 248.148438 " fill-opacity="1" fill-rule="nonzero"/><path fill="#211c1d" d="M 825.074219 382.832031 L 716.375 325.929688 L 639.054688 349.9375 L 633.667969 434.628906 L 757.34375 474.582031 L 825.128906 475.390625 L 828.097656 388.972656 L 825.074219 382.832031 " fill-opacity="1" fill-rule="evenodd"/><path fill="#211c1d" d="M 702.859375 335.570312 L 637.167969 304.660156 L 635.9375 301.164062 L 632.0625 298.140625 L 565.234375 323.28125 L 563.628906 395.589844 L 572.136719 394.363281 L 575.632812 398.617188 L 647.566406 418.371094 L 699.738281 400.601562 L 702.859375 335.570312 " fill-opacity="1" fill-rule="evenodd"/><path fill="#211c1d" d="M 687.714844 519.890625 C 687.714844 507.929688 711.039062 498.234375 739.816406 498.234375 C 768.589844 498.234375 791.914062 507.929688 791.914062 519.890625 C 791.914062 521.585938 791.648438 527.398438 791.648438 528.742188 C 791.648438 539.285156 768.382812 547.828125 739.683594 547.828125 C 710.980469 547.828125 687.714844 539.285156 687.714844 528.742188 C 687.714844 527.316406 687.714844 521.503906 687.714844 519.890625 " fill-opacity="1" fill-rule="nonzero"/><path fill="#211c1d" d="M 754.910156 535.1875 L 753.644531 596.367188 C 748.5625 602.910156 732.992188 601.828125 731.910156 595.125 L 731.550781 534.855469 L 754.910156 535.1875 " fill-opacity="1" fill-rule="evenodd"/><path fill="#211c1d" d="M 708.746094 457.300781 C 704.21875 475.949219 714.105469 498.65625 724.398438 500.109375 L 772.273438 509.972656 C 776.890625 501.746094 780.234375 489.132812 782.3125 472.140625 L 708.746094 457.300781 " fill-opacity="1" fill-rule="evenodd"/><path fill="#211c1d" d="M 771.1875 493.320312 C 771.1875 485.773438 775.703125 479.65625 781.277344 479.65625 C 786.847656 479.65625 791.367188 485.773438 791.367188 493.320312 C 791.367188 500.867188 786.847656 506.984375 781.277344 506.984375 C 775.703125 506.984375 771.1875 500.867188 771.1875 493.320312 " fill-opacity="1" fill-rule="nonzero"/><path fill="#211c1d" d="M 821.480469 385.667969 L 835.1875 380.707031 L 840.386719 386.375 L 835.898438 389.210938 L 833.296875 387.320312 L 825.5 392.519531 L 821.480469 385.667969 " fill-opacity="1" fill-rule="evenodd"/><path fill="#ffffff" d="M 716.113281 329.425781 L 710.558594 425.371094 L 821.683594 467.902344 L 825.222656 385.707031 L 716.113281 329.425781 " fill-opacity="1" fill-rule="evenodd"/><path fill="#ffffff" d="M 645.4375 312.953125 L 649.03125 314.605469 C 649.03125 345.875 649.035156 366.875 649.039062 378.109375 L 645.433594 376.886719 C 645.4375 366.058594 645.4375 344.636719 645.4375 312.953125 " fill-opacity="1" fill-rule="evenodd"/><path fill="#ffffff" d="M 655.449219 317.558594 L 658.621094 319.019531 L 658.625 381.363281 L 655.441406 380.285156 C 655.445312 368.75 655.449219 347.679688 655.449219 317.558594 " fill-opacity="1" fill-rule="evenodd"/><path fill="#ffffff" d="M 665.015625 321.964844 L 667.335938 323.035156 L 667.339844 384.320312 L 665.007812 383.527344 L 665.015625 321.964844 " fill-opacity="1" fill-rule="evenodd"/><path fill="#ffffff" d="M 673.730469 325.976562 L 677.113281 327.535156 L 677.117188 387.636719 L 673.726562 386.488281 L 673.730469 325.976562 " fill-opacity="1" fill-rule="evenodd"/><path fill="#ffffff" d="M 684.167969 330.78125 L 686.253906 331.746094 C 686.253906 360.179688 686.257812 379.761719 686.261719 390.738281 L 684.160156 390.027344 L 684.167969 330.78125 " fill-opacity="1" fill-rule="evenodd"/><path fill="#ffffff" d="M 690.113281 333.519531 L 691.777344 334.289062 L 691.78125 392.613281 L 690.105469 392.046875 L 690.113281 333.519531 " fill-opacity="1" fill-rule="evenodd"/><path fill="#ffffff" d="M 697.335938 394.5 L 695.539062 393.886719 C 695.914062 383.609375 696.605469 364.359375 697.59375 336.964844 L 699.242188 337.722656 L 697.335938 394.5 " fill-opacity="1" fill-rule="evenodd"/><path fill="#ffffff" d="M 637.789062 309.429688 L 640.738281 310.785156 C 640.738281 343.679688 640.742188 365.066406 640.746094 375.296875 L 637.152344 374.078125 L 637.789062 309.429688 " fill-opacity="1" fill-rule="evenodd"/><path fill="#ffffff" d="M 630.320312 301.03125 L 628.484375 371.730469 L 634.113281 373.570312 L 634.113281 302.527344 L 630.320312 301.03125 " fill-opacity="1" fill-rule="evenodd"/><path fill="#ffffff" d="M 577.402344 337.128906 C 583.722656 323.566406 597.785156 317.136719 608.8125 322.769531 C 619.839844 328.398438 623.660156 343.957031 617.339844 357.519531 C 611.023438 371.078125 596.960938 377.507812 585.933594 371.875 C 574.902344 366.246094 571.085938 350.6875 577.402344 337.128906 " fill-opacity="1" fill-rule="nonzero"/><path fill="#ffffff" d="M 683.296875 408.539062 L 614.621094 387.578125 C 614.285156 390.046875 613.613281 391.519531 612.605469 391.988281 L 676.71875 411.484375 C 679.25 411.617188 681.441406 410.636719 683.296875 408.539062 " fill-opacity="1" fill-rule="evenodd"/><path fill="#ffffff" d="M 663.035156 414.109375 L 594.996094 394.34375 C 594.660156 396.671875 593.996094 398.054688 592.996094 398.5 L 656.515625 416.886719 C 659.023438 417.011719 661.195312 416.085938 663.035156 414.109375 " fill-opacity="1" fill-rule="evenodd"/><path fill="#ffffff" d="M 612.527344 384.921875 L 609.082031 384.421875 C 609.015625 388.238281 607.667969 390.839844 605.03125 392.21875 C 609.710938 393.070312 612.210938 390.636719 612.527344 384.921875 " fill-opacity="1" fill-rule="evenodd"/><path fill="#ffffff" d="M 592.671875 391.957031 L 589.527344 391.496094 C 589.46875 394.980469 588.238281 397.355469 585.832031 398.617188 C 590.101562 399.390625 592.382812 397.171875 592.671875 391.957031 " fill-opacity="1" fill-rule="evenodd"/><path fill="#ffffff" d="M 707.335938 421.878906 L 707.335938 425.679688 L 637.929688 434.1875 Z M 707.335938 421.878906 " fill-opacity="1" fill-rule="evenodd"/><path fill="#211c1d" d="M 755.277344 349.011719 L 755.429688 355.558594 L 748.421875 352.378906 L 747.808594 370.890625 L 754.207031 374.226562 L 751.484375 417.675781 L 748.574219 417.675781 L 750.105469 376.671875 L 744.476562 373.644531 L 745.390625 352.53125 L 748.117188 350.847656 L 752.675781 352.53125 L 752.523438 348.277344 L 755.277344 349.011719 " fill-opacity="1" fill-rule="evenodd"/><path fill="#211c1d" d="M 732.789062 422.21875 C 720.96875 416.066406 717.03125 400.167969 728.535156 392.445312 L 726.007812 386.289062 L 729.632812 384.25 L 732.164062 392.285156 C 721.453125 399.210938 726.007812 416.222656 734.847656 419.691406 C 738.070312 428.238281 749.441406 428.554688 745.238281 415.75 C 750.433594 428.039062 738.457031 432.136719 732.789062 422.21875 " fill-opacity="1" fill-rule="evenodd"/><path fill="#211c1d" d="M 748.558594 391.246094 L 744.304688 393.820312 L 741.636719 391.644531 Z M 748.558594 391.246094 " fill-opacity="1" fill-rule="evenodd"/><path fill="#211c1d" d="M 731.5625 403.863281 C 731.292969 401.28125 732.746094 399.011719 734.8125 398.792969 C 735.21875 398.753906 735.617188 398.792969 736 398.90625 C 734.953125 399.828125 734.351562 401.425781 734.535156 403.167969 C 734.753906 405.242188 736.015625 406.882812 737.574219 407.339844 C 737.070312 407.785156 736.464844 408.070312 735.792969 408.140625 C 733.730469 408.359375 731.835938 406.441406 731.5625 403.863281 " fill-opacity="1" fill-rule="nonzero"/><path fill="#211c1d" d="M 718.066406 349.101562 C 716.636719 341.226562 719.960938 333.90625 725.488281 332.753906 C 731.015625 331.605469 736.65625 337.054688 738.085938 344.933594 C 739.515625 352.8125 736.191406 360.132812 730.664062 361.28125 C 725.136719 362.433594 719.496094 356.980469 718.066406 349.101562 " fill-opacity="1" fill-rule="nonzero"/><path fill="#ffffff" d="M 721.210938 348.445312 C 719.78125 340.566406 723.101562 333.25 728.632812 332.097656 C 734.160156 330.949219 739.800781 336.402344 741.230469 344.277344 C 742.660156 352.15625 739.335938 359.476562 733.808594 360.625 C 728.28125 361.777344 722.640625 356.324219 721.210938 348.445312 " fill-opacity="1" fill-rule="nonzero"/><path fill="#211c1d" d="M 729.140625 336.558594 C 729.402344 336.425781 729.675781 336.320312 729.960938 336.25 C 733.21875 335.445312 736.542969 339.265625 737.386719 344.789062 C 738.230469 350.3125 736.273438 355.441406 733.011719 356.246094 C 732.507812 356.371094 732 356.386719 731.5 356.300781 C 734.257812 354.902344 735.824219 350.1875 735.050781 345.148438 C 734.339844 340.480469 731.859375 337.03125 729.140625 336.558594 " fill-opacity="1" fill-rule="nonzero"/><path fill="#211c1d" d="M 749.25 424.726562 L 811.183594 452.511719 C 812.460938 452.289062 813.601562 450.945312 812.535156 449.441406 L 751.914062 421.148438 C 751.933594 422.765625 750.863281 424.222656 749.25 424.726562 " fill-opacity="1" fill-rule="evenodd"/><path fill="#ffffff" d="M 755.214844 421.164062 C 757.773438 423.308594 756.703125 426.265625 753.15625 425.804688 C 755.273438 425.0625 756.171875 423.917969 755.214844 421.164062 " fill-opacity="1" fill-rule="evenodd"/><path fill="#ffffff" d="M 758.195312 428.085938 C 760.273438 427.355469 761.152344 426.234375 760.21875 423.53125 C 762.722656 425.632812 761.675781 428.535156 758.195312 428.085938 " fill-opacity="1" fill-rule="evenodd"/><path fill="#ffffff" d="M 763.238281 430.363281 C 765.273438 429.648438 766.132812 428.550781 765.21875 425.902344 C 767.675781 427.964844 766.648438 430.804688 763.238281 430.363281 " fill-opacity="1" fill-rule="evenodd"/><path fill="#ffffff" d="M 768.277344 432.644531 C 770.273438 431.945312 771.117188 430.867188 770.222656 428.273438 C 772.628906 430.289062 771.621094 433.074219 768.277344 432.644531 " fill-opacity="1" fill-rule="evenodd"/><path fill="#ffffff" d="M 773.320312 434.921875 C 775.273438 434.238281 776.101562 433.183594 775.21875 430.640625 C 777.578125 432.617188 776.59375 435.347656 773.320312 434.921875 " fill-opacity="1" fill-rule="evenodd"/><path fill="#ffffff" d="M 778.359375 437.203125 C 780.273438 436.53125 781.082031 435.5 780.222656 433.007812 C 782.53125 434.949219 781.566406 437.617188 778.359375 437.203125 " fill-opacity="1" fill-rule="evenodd"/><path fill="#ffffff" d="M 783.402344 439.480469 C 785.273438 438.824219 786.0625 437.8125 785.222656 435.378906 C 787.480469 437.273438 786.535156 439.886719 783.402344 439.480469 " fill-opacity="1" fill-rule="evenodd"/><path fill="#ffffff" d="M 788.441406 441.761719 C 790.269531 441.117188 791.046875 440.128906 790.222656 437.746094 C 792.429688 439.601562 791.507812 442.15625 788.441406 441.761719 " fill-opacity="1" fill-rule="evenodd"/><path fill="#ffffff" d="M 793.480469 444.039062 C 795.269531 443.414062 796.03125 442.445312 795.222656 440.117188 C 797.382812 441.929688 796.480469 444.429688 793.480469 444.039062 " fill-opacity="1" fill-rule="evenodd"/><path fill="#ffffff" d="M 798.523438 446.320312 C 800.273438 445.707031 801.011719 444.761719 800.222656 442.488281 C 802.332031 444.257812 801.453125 446.699219 798.523438 446.320312 " fill-opacity="1" fill-rule="evenodd"/><path fill="#ffffff" d="M 803.5625 448.597656 C 805.269531 448 805.992188 447.078125 805.226562 444.855469 C 807.285156 446.585938 806.425781 448.96875 803.5625 448.597656 " fill-opacity="1" fill-rule="evenodd"/><path fill="#ffffff" d="M 810.226562 447.222656 C 812.238281 448.910156 811.398438 451.238281 808.601562 450.878906 C 810.269531 450.292969 810.976562 449.394531 810.226562 447.222656 " fill-opacity="1" fill-rule="evenodd"/><path fill="#211c1d" d="M 756.40625 429.492188 L 756.40625 434.550781 L 806.152344 455.414062 L 803.59375 455.820312 L 754.167969 435.492188 L 754.035156 429.894531 L 756.40625 429.492188 " fill-opacity="1" fill-rule="evenodd"/><path fill="#211c1d" d="M 818.769531 382.171875 L 817.488281 405.988281 L 825.355469 409.175781 L 825.355469 411.308594 L 815.582031 407.480469 L 817.273438 382.386719 L 818.769531 382.171875 " fill-opacity="1" fill-rule="evenodd"/><path fill="#211c1d" d="M 817.914062 438.308594 L 817.0625 457.671875 L 823.449219 461.070312 L 815.785156 458.734375 L 815.582031 439.375 L 817.914062 438.308594 " fill-opacity="1" fill-rule="evenodd"/><path fill="#211c1d" d="M 671.011719 323.253906 L 711.601562 311.46875 C 710.023438 313.199219 710.335938 314.855469 712.546875 316.429688 L 676.109375 326.480469 L 671.011719 323.253906 " fill-opacity="1" fill-rule="evenodd"/><path fill="#211c1d" d="M 788.996094 371.820312 C 788.035156 365.929688 790.605469 360.523438 794.738281 359.734375 C 798.875 358.949219 803.003906 363.085938 803.96875 368.972656 C 804.929688 374.863281 802.359375 380.273438 798.226562 381.058594 C 794.09375 381.84375 789.960938 377.707031 788.996094 371.820312 " fill-opacity="1" fill-rule="nonzero"/><path fill="#ffffff" d="M 791.351562 371.371094 C 790.386719 365.484375 792.957031 360.074219 797.089844 359.289062 C 801.226562 358.503906 805.355469 362.640625 806.320312 368.527344 C 807.28125 374.414062 804.714844 379.824219 800.582031 380.609375 C 796.445312 381.394531 792.3125 377.257812 791.351562 371.371094 " fill-opacity="1" fill-rule="nonzero"/><path fill="#211c1d" d="M 797.503906 362.523438 C 797.703125 362.425781 797.90625 362.355469 798.121094 362.304688 C 800.558594 361.746094 802.984375 364.636719 803.542969 368.765625 C 804.097656 372.890625 802.574219 376.6875 800.132812 377.246094 C 799.757812 377.332031 799.375 377.335938 799.007812 377.265625 C 801.078125 376.257812 802.308594 372.765625 801.796875 369 C 801.328125 365.515625 799.523438 362.910156 797.503906 362.523438 " fill-opacity="1" fill-rule="nonzero"/><path fill="#211c1d" d="M 790.214844 365.929688 L 783.394531 366.585938 C 779.046875 369.488281 780.734375 377.246094 785.359375 378.273438 L 792.460938 377.804688 L 790.214844 365.929688 " fill-opacity="1" fill-rule="evenodd"/><path fill="#211c1d" d="M 712.414062 316.382812 L 723.527344 335.710938 L 720.46875 336.738281 L 707.472656 315.710938 L 712.414062 316.382812 " fill-opacity="1" fill-rule="evenodd"/><path fill="#ffffff" d="M 711.558594 314.222656 L 723.554688 337.078125 L 729.332031 333.394531 L 715.90625 314.507812 L 711.558594 314.222656 " fill-opacity="1" fill-rule="evenodd"/><path fill="#ffffff" d="M 678.183594 324.023438 L 679.671875 324.636719 L 710.519531 316.359375 C 709.9375 316.234375 709.550781 315.902344 709.367188 315.359375 L 678.183594 324.023438 " fill-opacity="1" fill-rule="evenodd"/><path fill="#211c1d" d="M 761.261719 293.453125 C 766.488281 318.042969 759.851562 335.4375 751.71875 341.625 C 759.3125 334.734375 765.109375 317.835938 760.125 294.398438 C 753.902344 265.121094 736.464844 252 726.550781 254.105469 C 724.960938 254.445312 723.359375 255.21875 721.808594 256.394531 C 723.699219 254.679688 725.707031 253.582031 727.683594 253.160156 C 737.597656 251.054688 755.035156 264.175781 761.261719 293.453125 " fill-opacity="1" fill-rule="nonzero"/><path fill="#211c1d" d="M 755.40625 291.230469 C 754.917969 288.957031 755.785156 286.890625 757.351562 286.617188 C 758.914062 286.339844 760.574219 287.964844 761.066406 290.238281 C 761.554688 292.511719 760.6875 294.574219 759.121094 294.847656 C 757.558594 295.125 755.894531 293.503906 755.40625 291.230469 " fill-opacity="1" fill-rule="nonzero"/><path fill="#ffffff" d="M 756.894531 290.871094 C 756.40625 288.597656 757.277344 286.53125 758.839844 286.257812 C 760.402344 285.984375 762.066406 287.605469 762.554688 289.875 C 763.042969 292.152344 762.171875 294.21875 760.609375 294.492188 C 759.046875 294.765625 757.382812 293.144531 756.894531 290.871094 " fill-opacity="1" fill-rule="nonzero"/><path fill="#211c1d" d="M 820.164062 332.726562 C 824.890625 354.964844 818.890625 370.695312 811.535156 376.292969 C 818.402344 370.0625 823.640625 354.773438 819.136719 333.582031 C 813.507812 307.097656 797.738281 295.234375 788.769531 297.136719 C 787.335938 297.445312 785.882812 298.140625 784.480469 299.210938 C 786.191406 297.65625 788.007812 296.664062 789.796875 296.285156 C 798.761719 294.378906 814.53125 306.246094 820.164062 332.726562 " fill-opacity="1" fill-rule="nonzero"/><path fill="#211c1d" d="M 814.84375 330.753906 C 814.402344 328.695312 815.1875 326.828125 816.601562 326.582031 C 818.015625 326.332031 819.519531 327.796875 819.964844 329.855469 C 820.40625 331.910156 819.617188 333.777344 818.207031 334.027344 C 816.792969 334.277344 815.285156 332.808594 814.84375 330.753906 " fill-opacity="1" fill-rule="nonzero"/><path fill="#ffffff" d="M 816.191406 330.429688 C 815.746094 328.371094 816.535156 326.503906 817.945312 326.257812 C 819.359375 326.007812 820.867188 327.476562 821.308594 329.53125 C 821.753906 331.585938 820.964844 333.457031 819.550781 333.703125 C 818.136719 333.953125 816.632812 332.484375 816.191406 330.429688 " fill-opacity="1" fill-rule="nonzero"/><path fill="#211c1d" d="M 582.234375 337.992188 C 588.550781 324.429688 602.613281 318 613.640625 323.632812 C 624.671875 329.265625 628.488281 344.820312 622.167969 358.382812 C 615.851562 371.941406 601.789062 378.371094 590.761719 372.742188 C 579.734375 367.109375 575.914062 351.550781 582.234375 337.992188 " fill-opacity="1" fill-rule="nonzero"/><path fill="#ffffff" d="M 585.363281 338.265625 C 589.894531 328.535156 598.410156 322.480469 606.933594 321.910156 C 607.578125 322.152344 608.214844 322.433594 608.839844 322.753906 C 619.871094 328.382812 623.6875 343.941406 617.371094 357.503906 C 612.835938 367.230469 604.320312 373.285156 595.796875 373.855469 C 595.15625 373.613281 594.519531 373.332031 593.890625 373.011719 C 582.863281 367.382812 579.042969 351.824219 585.363281 338.265625 " fill-opacity="1" fill-rule="nonzero"/><path fill="#ffffff" d="M 766.3125 464.671875 L 753.726562 498.179688 L 748.78125 498.179688 L 761.195312 465.882812 L 766.3125 464.671875 " fill-opacity="1" fill-rule="evenodd"/><path fill="#ffffff" d="M 741.3125 460.417969 L 733.152344 458.414062 C 735.339844 473.796875 740.265625 485.023438 747.917969 492.09375 L 752.171875 483.070312 C 748.574219 480.667969 744.957031 473.121094 741.3125 460.417969 " fill-opacity="1" fill-rule="evenodd"/><path fill="#ffffff" d="M 787.800781 523.589844 C 787.800781 520.113281 790.011719 517.296875 792.746094 517.296875 C 795.476562 517.296875 797.691406 520.113281 797.691406 523.589844 C 797.691406 527.066406 795.476562 529.882812 792.746094 529.882812 C 790.011719 529.882812 787.800781 527.066406 787.800781 523.589844 " fill-opacity="1" fill-rule="nonzero"/><path fill="#ffffff" d="M 785.828125 516.578125 C 755.269531 498.78125 710.386719 499.171875 692.785156 515.992188 C 720.160156 503.28125 751.175781 503.476562 785.828125 516.578125 " fill-opacity="1" fill-rule="evenodd"/><path fill="#ffffff" d="M 750.910156 540.113281 L 750.910156 589.789062 L 747.015625 589.246094 Z M 750.910156 540.113281 " fill-opacity="1" fill-rule="evenodd"/><path fill="#ffffff" d="M 773.582031 493.253906 C 773.582031 486.9375 777.222656 481.820312 781.71875 481.820312 C 786.210938 481.820312 789.855469 486.9375 789.855469 493.253906 C 789.855469 499.566406 786.210938 504.683594 781.71875 504.683594 C 777.222656 504.683594 773.582031 499.566406 773.582031 493.253906 " fill-opacity="1" fill-rule="nonzero"/><path fill="#ffffff" d="M 729.820312 519.101562 C 743.992188 518.496094 759.613281 520.910156 773.632812 526.476562 L 773.796875 528.269531 C 757.886719 523.503906 742.78125 521.597656 728.480469 522.550781 L 729.820312 519.101562 " fill-opacity="1" fill-rule="evenodd"/><path fill="#211c1d" d="M 693.265625 523.453125 L 703.945312 532.503906 L 668.011719 598.621094 C 662.988281 597.175781 658.050781 595.53125 653.207031 593.6875 L 693.265625 523.453125 " fill-opacity="1" fill-rule="nonzero"/><path fill="#211c1d" d="M 713.714844 519.742188 L 728.105469 518.929688 L 696.425781 604.4375 C 690.566406 603.703125 684.789062 602.703125 679.109375 601.441406 L 713.714844 519.742188 " fill-opacity="1" fill-rule="nonzero"/><path fill="#ffffff" d="M 722.722656 526.644531 L 715.796875 544.632812 C 714.898438 544.039062 713.519531 543.867188 711.664062 544.117188 L 719.277344 525.441406 C 721.09375 525.261719 722.242188 525.664062 722.722656 526.644531 " fill-opacity="1" fill-rule="evenodd"/><g fill="#ffffff" fill-opacity="1"><g transform="translate(632.03335, 652.901291)"><g><path d="M 23.09375 0 L 1.953125 0 L 1.953125 -17.546875 L 22.125 -17.546875 L 22.125 -13.203125 L 9.3125 -13.203125 L 9.3125 -10.453125 L 20.140625 -10.453125 L 20.140625 -7.078125 L 9.3125 -7.078125 L 9.3125 -4.34375 L 23.09375 -4.34375 Z M 23.09375 0 "/></g></g><g transform="translate(656.107647, 652.901291)"><g><path d="M 11.59375 0.375 C 9.21875 0.375 7.304688 0.117188 5.859375 -0.390625 C 4.410156 -0.898438 3.304688 -1.597656 2.546875 -2.484375 C 1.785156 -3.378906 1.273438 -4.410156 1.015625 -5.578125 L 8.828125 -5.578125 C 9.410156 -4.742188 10.332031 -4.328125 11.59375 -4.328125 C 12.851562 -4.328125 13.773438 -4.742188 14.359375 -5.578125 C 14.410156 -5.660156 14.4375 -5.734375 14.4375 -5.796875 C 14.4375 -6.015625 14.144531 -6.175781 13.5625 -6.28125 C 12.976562 -6.394531 12.109375 -6.484375 10.953125 -6.546875 C 9.484375 -6.609375 7.945312 -6.757812 6.34375 -7 C 2.769531 -7.5625 0.984375 -9.003906 0.984375 -11.328125 C 0.984375 -11.523438 0.992188 -11.734375 1.015625 -11.953125 C 1.273438 -13.117188 1.785156 -14.144531 2.546875 -15.03125 C 3.304688 -15.925781 4.410156 -16.628906 5.859375 -17.140625 C 7.304688 -17.648438 9.21875 -17.90625 11.59375 -17.90625 C 13.96875 -17.90625 15.878906 -17.648438 17.328125 -17.140625 C 18.773438 -16.628906 19.878906 -15.925781 20.640625 -15.03125 C 21.398438 -14.144531 21.910156 -13.117188 22.171875 -11.953125 L 14.359375 -11.953125 C 13.773438 -12.785156 12.851562 -13.203125 11.59375 -13.203125 C 10.332031 -13.203125 9.410156 -12.785156 8.828125 -11.953125 C 8.785156 -11.878906 8.765625 -11.816406 8.765625 -11.765625 C 8.765625 -11.566406 9.039062 -11.421875 9.59375 -11.328125 C 10.15625 -11.234375 10.976562 -11.15625 12.0625 -11.09375 C 13.15625 -11.03125 14.316406 -10.921875 15.546875 -10.765625 C 16.785156 -10.617188 17.941406 -10.363281 19.015625 -10 C 20.085938 -9.644531 20.925781 -9.113281 21.53125 -8.40625 C 22 -7.851562 22.234375 -7.160156 22.234375 -6.328125 C 22.234375 -6.085938 22.210938 -5.835938 22.171875 -5.578125 C 21.910156 -4.410156 21.398438 -3.378906 20.640625 -2.484375 C 19.878906 -1.597656 18.773438 -0.898438 17.328125 -0.390625 C 15.878906 0.117188 13.96875 0.375 11.59375 0.375 Z M 11.59375 0.375 "/></g></g><g transform="translate(679.325643, 652.901291)"><g><path d="M 14.96875 0 L 7.609375 0 L 7.609375 -13.203125 L 0.734375 -13.203125 L 0.734375 -17.546875 L 21.84375 -17.546875 L 21.84375 -13.203125 L 14.96875 -13.203125 Z M 14.96875 0 "/></g></g><g transform="translate(701.907529, 652.901291)"><g/></g><g transform="translate(708.121829, 652.901291)"><g><path d="M 21.609375 0 L 0.984375 0 L 0.984375 -4.34375 C 0.984375 -5.363281 1.28125 -6.207031 1.875 -6.875 C 2.46875 -7.539062 3.234375 -8.078125 4.171875 -8.484375 C 5.117188 -8.898438 6.132812 -9.226562 7.21875 -9.46875 C 8.300781 -9.71875 9.347656 -9.925781 10.359375 -10.09375 C 11.691406 -10.300781 12.753906 -10.535156 13.546875 -10.796875 C 14.148438 -10.992188 14.453125 -11.269531 14.453125 -11.625 C 14.453125 -11.726562 14.425781 -11.835938 14.375 -11.953125 C 13.8125 -12.785156 12.890625 -13.203125 11.609375 -13.203125 C 10.335938 -13.203125 9.414062 -12.785156 8.84375 -11.953125 L 1.03125 -11.953125 C 1.289062 -13.117188 1.796875 -14.148438 2.546875 -15.046875 C 3.304688 -15.941406 4.410156 -16.644531 5.859375 -17.15625 C 7.316406 -17.664062 9.234375 -17.921875 11.609375 -17.921875 C 13.984375 -17.921875 15.894531 -17.664062 17.34375 -17.15625 C 18.789062 -16.644531 19.894531 -15.941406 20.65625 -15.046875 C 21.414062 -14.148438 21.925781 -13.117188 22.1875 -11.953125 C 22.226562 -11.679688 22.25 -11.421875 22.25 -11.171875 C 22.25 -10.003906 21.800781 -9.035156 20.90625 -8.265625 C 20.007812 -7.503906 18.789062 -6.925781 17.25 -6.53125 C 15.707031 -6.144531 14.207031 -5.851562 12.75 -5.65625 C 12 -5.539062 11.328125 -5.425781 10.734375 -5.3125 C 10.140625 -5.195312 9.664062 -5.0625 9.3125 -4.90625 C 8.96875 -4.757812 8.796875 -4.570312 8.796875 -4.34375 L 21.609375 -4.34375 Z M 21.609375 0 "/></g></g><g transform="translate(731.352058, 652.901291)"><g><path d="M 11.625 0.375 C 7.863281 0.375 5.097656 -0.515625 3.328125 -2.296875 C 1.765625 -3.878906 0.984375 -6.035156 0.984375 -8.765625 C 0.984375 -11.492188 1.765625 -13.644531 3.328125 -15.21875 C 5.097656 -17.007812 7.863281 -17.90625 11.625 -17.90625 C 15.375 -17.90625 18.128906 -17.007812 19.890625 -15.21875 C 21.472656 -13.644531 22.265625 -11.492188 22.265625 -8.765625 C 22.265625 -6.035156 21.472656 -3.878906 19.890625 -2.296875 C 18.128906 -0.515625 15.375 0.375 11.625 0.375 Z M 11.625 -4.328125 C 12.96875 -4.328125 13.882812 -4.863281 14.375 -5.9375 C 14.71875 -6.664062 14.890625 -7.609375 14.890625 -8.765625 C 14.890625 -9.921875 14.71875 -10.863281 14.375 -11.59375 C 13.882812 -12.664062 12.96875 -13.203125 11.625 -13.203125 C 10.269531 -13.203125 9.34375 -12.664062 8.84375 -11.59375 C 8.507812 -10.863281 8.34375 -9.921875 8.34375 -8.765625 C 8.34375 -7.617188 8.507812 -6.675781 8.84375 -5.9375 C 9.34375 -4.863281 10.269531 -4.328125 11.625 -4.328125 Z M 11.625 -4.328125 "/></g></g><g transform="translate(754.594519, 652.901291)"><g><path d="M 21.609375 0 L 0.984375 0 L 0.984375 -4.34375 C 0.984375 -5.363281 1.28125 -6.207031 1.875 -6.875 C 2.46875 -7.539062 3.234375 -8.078125 4.171875 -8.484375 C 5.117188 -8.898438 6.132812 -9.226562 7.21875 -9.46875 C 8.300781 -9.71875 9.347656 -9.925781 10.359375 -10.09375 C 11.691406 -10.300781 12.753906 -10.535156 13.546875 -10.796875 C 14.148438 -10.992188 14.453125 -11.269531 14.453125 -11.625 C 14.453125 -11.726562 14.425781 -11.835938 14.375 -11.953125 C 13.8125 -12.785156 12.890625 -13.203125 11.609375 -13.203125 C 10.335938 -13.203125 9.414062 -12.785156 8.84375 -11.953125 L 1.03125 -11.953125 C 1.289062 -13.117188 1.796875 -14.148438 2.546875 -15.046875 C 3.304688 -15.941406 4.410156 -16.644531 5.859375 -17.15625 C 7.316406 -17.664062 9.234375 -17.921875 11.609375 -17.921875 C 13.984375 -17.921875 15.894531 -17.664062 17.34375 -17.15625 C 18.789062 -16.644531 19.894531 -15.941406 20.65625 -15.046875 C 21.414062 -14.148438 21.925781 -13.117188 22.1875 -11.953125 C 22.226562 -11.679688 22.25 -11.421875 22.25 -11.171875 C 22.25 -10.003906 21.800781 -9.035156 20.90625 -8.265625 C 20.007812 -7.503906 18.789062 -6.925781 17.25 -6.53125 C 15.707031 -6.144531 14.207031 -5.851562 12.75 -5.65625 C 12 -5.539062 11.328125 -5.425781 10.734375 -5.3125 C 10.140625 -5.195312 9.664062 -5.0625 9.3125 -4.90625 C 8.96875 -4.757812 8.796875 -4.570312 8.796875 -4.34375 L 21.609375 -4.34375 Z M 21.609375 0 "/></g></g><g transform="translate(777.824747, 652.901291)"><g><path d="M 20.296875 0 L 12.9375 0 L 12.9375 -4.34375 L 0.734375 -4.34375 L 0.734375 -8.671875 L 12.9375 -17.546875 L 20.296875 -17.546875 L 20.296875 -8.671875 L 23.171875 -8.671875 L 23.171875 -4.34375 L 20.296875 -4.34375 Z M 12.9375 -8.671875 L 12.9375 -12.203125 L 8.15625 -8.671875 Z M 12.9375 -8.671875 "/></g></g></g><g fill="#ffffff" fill-opacity="1"><g transform="translate(801.75225, 652.901291)"><g/></g></g></svg>